{"title":"The Blackcoat's Daughter 2015 Movies HDRip XviD New +Sample ☻rDX","uid":14823617,"size":744049563,"categoryP":"video","categoryS":"movies","magnet":"?xt=urn:btih:2a2a5487ab439622b5d4ca1dd05d3f23cd306014&amp;dn=The+Blackcoat%27s+Daughter+2015+Movies+HDRip+XviD+New+%2BSample+%E2%98%BBrDX&amp;tr=udp%3A%2F%2Ftracker.leechers-paradise.org%3A6969&amp;tr=udp%3A%2F%2Fzer0day.ch%3A1337&amp;tr=udp%3A%2F%2Fopen.demonii.com%3A1337&amp;tr=udp%3A%2F%2Ftracker.coppersurfer.tk%3A6969&amp;tr=udp%3A%2F%2Fexodus.desync.com%3A6969","seeders":1,"leechers":0,"uploader":"basicssom","files":2,"time":1465272613,"description":"----------------------------------------------------------------\r\nThe Blackcoat's Daughter 2015 English Movies HDRip XviD AAC New Source with Sample ☻rDX☻\r\n\r\nSCREEN SHOTS &amp; POSTER:\r\n  \nhttp://mobileshosting.com/2016/6/browsing/index.htm  \nhttp://mobileshosting.com/2016/6/browsing/1.html  \nhttp://mobileshosting.com/2016/6/browsing/2.html  \nhttp://mobileshosting.com/2016/6/browsing/3.html  \nhttp://mobileshosting.com/2016/6/browsing/4.html  \nhttp://mobileshosting.com/2016/6/browsing/5.html  \nhttp://mobileshosting.com/2016/6/browsing/6.html  \nhttp://mobileshosting.com/2016/6/browsing/7.html  \nhttp://mobileshosting.com/2016/6/browsing/8.html  \nhttp://mobileshosting.com/2016/6/browsing/9.html  \nhttp://mobileshosting.com/2016/6/browsing/10.html\r\n\r\nFormat                                   : Matroska\r\nFormat version                           : Version 4 / Version 2\r\nFile size                                : 705 MiB\r\nDuration                                 : 1h 29mn\r\nOverall bit rate                         : 1 106 Kbps\r\nMovie name                               : The Blackcoat's Daughter 2015 English Movies HDRip XviD AAC New Source ☻rDX☻\r\n\r\nVideo\r\nID                                       : 1\r\nFormat                                   : MPEG-4 Visual\r\nFormat profile                           : Advanced   \r\nFormat settings, BVOP                    : Yes\r\nFormat settings, QPel                    : No\r\nFormat settings, GMC                     : No warppoints\r\nFormat settings, Matrix                  : Default (H.263)\r\nCodec ID                                 : V_MS/VFW/FOURCC / XVID\r\nCodec ID/Hint                            : XviD\r\nDuration                                 : 1h 29mn\r\nBit rate                                 : 956 Kbps\r\nWidth                                    : 640 pixels\r\nHeight                                   : 352 pixels\r\nDisplay aspect ratio                     : 16:9\r\nFrame rate mode                          : Constant\r\nFrame rate                               : 23.976 fps\r\nColor space                              : YUV\r\nChroma subsampling                       : 4:2:0\r\nBit depth                                : 8 bits\r\nScan type                                : Progressive\r\nCompression mode                         : Lossy\r\nBits/(Pixel*Frame)                       : 0.177\r\nStream size                              : 610 MiB (86%)\r\nTitle                                    : ☻rDX☻\r\nWriting library                          : XviD 65\r\nDefault                                  : Yes\r\nForced                                   : No\r\n\r\nAudio\r\nID                                       : 2\r\nFormat                                   : MPEG Audio\r\nFormat version                           : Version 1\r\nFormat profile                           : Layer 3\r\nMode                                     : Joint stereo\r\nCodec ID                                 : A_MPEG/L3\r\nCodec ID/Hint                            : MP3\r\nDuration                                 : 1h 29mn\r\nBit rate mode                            : Constant\r\nBit rate                                 : 128 Kbps\r\nChannel(s)                               : 2 channels\r\nSampling rate                            : 44.1 KHz\r\nCompression mode                         : Lossy\r\nStream size                              : 81.6 MiB (12%)\r\nTitle                                    : ☻rDX☻\r\nWriting library                          : LAME3.99r\r\nEncoding settings                        : -m j -V 4 -q 3 -lowpass 17 -b 128\r\nDefault                                  : Yes\r\nForced                                   : No\r\n\r\nIMDB \nhttp://www.imdb.com/title/tt3286052/","torrent":{"xt":"urn:btih:2a2a5487ab439622b5d4ca1dd05d3f23cd306014","amp;dn":"The+Blackcoat%27s+Daughter+2015+Movies+HDRip+XviD+New+%2BSample+%E2%98%BBrDX","amp;tr":["udp%3A%2F%2Ftracker.leechers-paradise.org%3A6969","udp%3A%2F%2Fzer0day.ch%3A1337","udp%3A%2F%2Fopen.demonii.com%3A1337","udp%3A%2F%2Ftracker.coppersurfer.tk%3A6969","udp%3A%2F%2Fexodus.desync.com%3A6969"],"infoHash":"2a2a5487ab439622b5d4ca1dd05d3f23cd306014","infoHashBuffer":{"type":"Buffer","data":[42,42,84,135,171,67,150,34,181,212,202,29,208,93,63,35,205,48,96,20]},"announce":[],"urlList":[]}}